<svg xmlns="http://www.w3.org/2000/svg" shape-rendering="geometricPrecision"
     width="45" height="45"
     text-rendering="geometricPrecision" image-rendering="optimizeQuality"
     fill-rule="evenodd" clip-rule="evenodd"
     viewBox="0 0 512 420.16">
    <path fill-rule="nonzero"
          d="M74.32 0h363.36C478.55 0 512 33.46 512 74.32v271.53c0 40.81-33.5 74.31-74.32 74.31H74.32C33.44 420.16 0 386.69 0 345.85V74.32C0 33.41 33.41 0 74.32 0zm230.62 141.81v102.46h15.51c5.53 0 9.32-.69 11.36-2.08 2.04-1.38 3.05-4.54 3.05-9.5v-90.88h43.7v76.69c0 12.37-.8 22.35-2.41 29.92-1.6 7.58-4.58 13.99-8.95 19.22-4.37 5.25-10.34 8.89-17.91 10.93-7.58 2.04-17.41 3.06-29.5 3.06s-21.88-1.02-29.38-3.06-13.43-5.68-17.81-10.93c-4.36-5.23-7.35-11.64-8.95-19.22-1.6-7.57-2.4-17.55-2.4-29.92v-76.69h43.69zm-55.71 136.54h-48.06l-17.92-40.63h-9.38v40.63h-43.7V141.81h68.81c31.32 0 46.97 15.96 46.97 47.85 0 21.84-6.77 36.26-20.31 43.25l23.59 45.44zm-75.36-101.58v27.3h10.04c5.24 0 9.07-.54 11.47-1.63 2.4-1.09 3.6-3.61 3.6-7.54v-8.96c0-3.93-1.2-6.44-3.6-7.53-2.4-1.09-6.23-1.64-11.47-1.64h-10.04zM437.68 35.93H74.32c-21.08 0-38.39 17.31-38.39 38.39v271.53c0 21.1 17.25 38.39 38.39 38.39h363.36c21.16 0 38.39-17.24 38.39-38.39V74.32c0-21.09-17.29-38.39-38.39-38.39z"/>
</svg>